/* XPM */
static char * ball_xpm[] = {
"16 16 22 1",
" 	c None",
".	c #000000",
"+	c #1F201F",
"@	c #2B2B2B",
"#	c #373736",
"$	c #616161",
"%	c #717172",
"&	c #373737",
"*	c #1F1F1F",
"=	c #616060",
"-	c #9B9B9B",
";	c #B8B8B8",
">	c #2B2A2B",
",	c #727272",
"'	c #B9B9B9",
")	c #FFFFFF",
"!	c #2B2B2A",
"~	c #B9B8B8",
"{	c #717171",
"]	c #606061",
"^	c #1F1F20",
"/	c #201F20",
"     ......     ",
"   ..........   ",
"  ......+@+...  ",
" ......#$%$&... ",
" .....*=-;-=+.. ",
"......>,');%!...",
"......+$-~-$*...",
".......&${]#....",
"........^@/.....",
"................",
"................",
" .............. ",
" .............. ",
"  ............  ",
"   ..........   ",
"     ......     "};
