/* XPM */
static char * block_xpm[] = {
"64 32 2 1",
" 	c None",
".	c #000000",
"   ..........................................................   ",
"  ............................................................  ",
" .............................................................. ",
"...                                                          ...",
"................................................................",
"...                                                          ...",
"................................................................",
"...                                                          ...",
"................................................................",
"...                                                          ...",
"................................................................",
"...                                                          ...",
"................................................................",
"...                                                          ...",
"................................................................",
"...                                                          ...",
"................................................................",
"...                                                          ...",
"................................................................",
"...                                                          ...",
"................................................................",
"...                                                          ...",
"................................................................",
"...                                                          ...",
"................................................................",
"...                                                          ...",
"................................................................",
"...                                                          ...",
"................................................................",
" .............................................................. ",
"  ............................................................  ",
"   ..........................................................   "};
