/* XPM */
static char * blue_mode_xpm[] = {
"64 32 35 1",
" 	c None",
".	c #000000",
"+	c #000011",
"@	c #000022",
"#	c #000023",
"$	c #000033",
"%	c #000034",
"&	c #000043",
"*	c #000044",
"=	c #000055",
"-	c #000066",
";	c #000067",
">	c #000077",
",	c #000078",
"'	c #000088",
")	c #000099",
"!	c #000032",
"~	c #00009A",
"{	c #0000AA",
"]	c #000054",
"^	c #0000AB",
"/	c #0000BB",
"(	c #0000BC",
"_	c #0000CC",
":	c #0000CD",
"<	c #0000DD",
"[	c #0000DE",
"}	c #0000EE",
"|	c #0000FF",
"1	c #000098",
"2	c #000076",
"3	c #000065",
"4	c #0000CB",
"5	c #000087",
"6	c #000021",
"   ..........................................................   ",
"  ............................................................  ",
" .........................+++++++++++++++++++++++++++++++++++@. ",
"..........................@@@@@@@@@@@@@@@@@@@@@@@@@@@@@@@#@@$@..",
"..........................$$%$$$$$$$%$$$$$$$$$$$$$$$$$$$$$$&$@..",
"..........................********************************=&$@..",
"..........................===============================-=*$@..",
"..........................--;--------------------------->-=*$@..",
"..........................>>>>>>>>>>>>>>>>>>>>>>,>,>>>>'>-=*$@..",
"..........................'''''''''''''''''''''''''''')'>-=*!@..",
"..........................)))))))))))))))))~~)))))))){)'>-]*$@..",
"..........................^{^^{{{{{{{{{{{{{{{^{{{{{{/{)'>-=*$@..",
"..........................////////////((/////(/////_/{)'>-=&$@..",
".........................._____:_______:__________<_/{)'>-=*$@..",
"..........................<<<<<<<<<<<<<<[<<<<<<<<}<_/{)'>-=*$@..",
"..........................}}}}}}}}}}}}}}}}}}}}}}|}<_/{)'>-=*$@..",
"..........................|||||||||||||||||||||||}<_/{)'>-]*$@..",
"..........................}}}}}}}}}}}}}}}}}}}}}}}}<_/{)'>-=*$@..",
"..........................<<<<<<<<<<<<<<<<<<<<<<<<<_/{1'23=*$@..",
"..........................______________4___________/{)'>-=*$@..",
"..........................///////////////////////////{)'>-=*$@..",
"..........................{{{{{{{{{{{{{{{{{{{{{{{{{{{{)5>3=*$@..",
"..........................))))))))))))))1)))))))1))))))'>-=*$@..",
"..........................''''''''''''''''''''''''''''''>-=*$@..",
"..........................>2>>>>>>>>>>>>2>>>>>>>>>>>>>>>>-=*$6..",
"..........................--------------------------------=*$@..",
"..........................=================================*$@..",
"..........................**********&***********************$@..",
"..........................$$$$$$$$$$$$$$$$$$$$$$$$$$$$$$$$$!$@..",
" .........................@@@@@@@@@@@@@@@@@@@6@@@@@@@@6@@@@@@@. ",
"  ............................................................  ",
"   ..........................................................   "};
