/* XPM */
static char * blue_xpm[] = {
"64 32 39 1",
" 	c None",
".	c #000000",
"+	c #000011",
"@	c #000022",
"#	c #000023",
"$	c #000033",
"%	c #000034",
"&	c #000043",
"*	c #000044",
"=	c #000045",
"-	c #000055",
";	c #000066",
">	c #000067",
",	c #000077",
"'	c #000078",
")	c #000088",
"!	c #000056",
"~	c #000089",
"{	c #000099",
"]	c #000032",
"^	c #00009A",
"/	c #0000AA",
"(	c #000054",
"_	c #0000AB",
":	c #0000BB",
"<	c #0000BC",
"[	c #0000CC",
"}	c #0000CD",
"|	c #0000DD",
"1	c #0000DE",
"2	c #0000EE",
"3	c #0000EF",
"4	c #0000FF",
"5	c #000098",
"6	c #000076",
"7	c #000065",
"8	c #0000CB",
"9	c #000087",
"0	c #000021",
"   ..........................................................   ",
"  ............................................................  ",
" .+++++++++++++++++++++++++++++++++++++++++++++++++++++++++++@. ",
"..+@@@@@@@@@@@@@@@@@@@@@@@@@@@@@@@@@@@@@@@@@@@@@@@@@@@@@@#@@$@..",
"..+@$$$$$$$$$$$$$$$$$$$$$$$$%$$$$$$$%$$$$$$$$$$$$$$$$$$$$$$&$@..",
"..+@$**************=**************************************-&$@..",
"..+@$*---------------------------------------------------;-*$@..",
"..+@$*-;;;;;;;;;;;;;;;;;;;;;>;;;;;;;;;;;;;;;;;;;;;;;;;;;,;-*$@..",
"..+@$*-;,,,,,,,,,,,,,,,,,,,,,,,,,,,,,,,,,,,,,,,,',',,,,),;-*$@..",
"..+@$*!;,))))))))))~)))))))))))))))))))))))))))))))))){),;-*]@..",
"..+@$*-;,~{{{{{{{{{^{{{{{{{{{{{{{{{{{{{{{{{^^{{{{{{{{/{),;(*$@..",
"..+@$*-;,){///////////////_/__///////////////_//////:/{),;-*$@..",
"..+@$*-;,)^/::<:::::::::::::::::::::::<<:::::<:::::[:/{),;-&$@..",
"..+@$*-;,){/:[[[[[[[[[[[[[[[[[[}[[[[[[[}[[[[[[[[[[|[:/{),;-*$@..",
"..+@$*-;,){/:[|||||1||||||||||||||||||||1||||||||2|[:/{),;-*$@..",
"..+@$*-;,){/:[|22232222222222222222222222222222242|[:/{),;-*$@..",
"..+@$*-;,){/:[|44444444444444444444444444444444442|[:/{),;(*$@..",
"..+@$*-;,){/:[222222222222222222222222222222222222|[:/{),;-*$@..",
"..+@$*-;,){/:||||||||||||||||||||||||||||||||||||||[:/5)67-*$@..",
"..+@%*-;,){/[[[[[[[[[[[[[[[[[[[[[[[[[[[[8[[[[[[[[[[[:/{),;-*$@..",
"..+@$*-;,){::::::::::::::::::::::::::::::::::::::::::/{),;-*$@..",
"..+@$*-;,)////////////////////////////////////////////{9,7-*$@..",
"..+@$*-;,{{{{{{{{{{{5{{{{{{{{{{{{{{{{{{{5{{{{{{{5{{{{{{),;-*$@..",
"..+@$*-;9))))))))))))))))))))))))))))))))))))))))))))))),;-*$@..",
"..+@$*-,,,,,,,,,,,,,,,,,,,,6,,,,,,,,,,,,6,,,,,,,,,,,,,,,,;-*$0..",
"..+@$*;;;;;;;;;7;;;;;;;;;;;;;;;;;;;;;;;;;;;;;;;;;;;;;;;;;;-*$@..",
"..+@$---------(-(-------(----------------------------------*$@..",
"..+@*&******************************&***********************$@..",
"..+$$$$$$$$$$$$$$$$$$$$$$$$$$$$$$$$$$$$$$$$$$$$$$$$$$$$$$$$]$@..",
" .@@@@@@@@@@@0@@@@@@@@@@@@@@@@@@@@@@@@@@@@@@@0@@@@@@@@0@@@@@@@. ",
"  ............................................................  ",
"   ..........................................................   "};
