/* XPM */
static char * bonus_xpm[] = {
"128 64 21 1",
" 	c None",
".	c #FF0606",
"+	c #FF1919",
"@	c #FF1918",
"#	c #FF1818",
"$	c #FF1819",
"%	c #FF0707",
"&	c #FF3434",
"*	c #FF3534",
"=	c #FF5858",
"-	c #FF3435",
";	c #FF5758",
">	c #FF5757",
",	c #FF5857",
"'	c #FF7E7E",
")	c #FF3535",
"!	c #FF7F7F",
"~	c #FF7F7E",
"{	c #FF7E7F",
"]	c #FF8080",
"^	c #FF0706",
"                                                                                                                                ",
"                                                                                                                                ",
"                                                                                                                                ",
"                                                                                                                                ",
"                                                                                                                                ",
"                                                                                                                                ",
"                                                                                                                                ",
"                                                                                                                                ",
"                                                                                                                                ",
"                                                                                                                                ",
"                                                                                                                                ",
"                                                                                                                                ",
"                                                                                                                                ",
"                                                                                                                                ",
"                                                                                                                                ",
"                                                                                                                                ",
"                                                                                                                                ",
"                                                                                                                                ",
"                                                                                                                       ..       ",
"     .+@###@$#######@@@#                                                                                             #@@#@      ",
"     %#&&&&&&&&&&&&&*&&&##                                                                                           @&*=-#     ",
"     .##&;>>;;*#@##&&;=>&&#                                                                                          @&;,*#     ",
"        #-;';)@    ##&,!>>&#                                                                                         #&,,)$     ",
"        $&,=&#       #&;~,-#                                                                                         #&,;)#     ",
"        #&>;*$        #&>,-#                                                                                         #&=;&#     ",
"        #&,;&#        #&>=&#        #####$#          ######  ######         ######     $##$##       #$#$$## ##       #&==&#     ",
"        #&>=-#       #&>!=&#      ##&&&&&&&###    ##$&&&&&&##&&&&-&$#    ###&&&&&@   ##&&&&&#     #$-&&&-&&#&#       #&=&#      ",
"        #&>;-+      $&>'=&#     ##&&=**#&*>&&&#   #&&>=>=,>&&*$&>>>&&@   #&&>>;>-#   #&>>>;-#    @&&&$$#@#***#       @&>-$      ",
"        #&;{;&######&>{=&$      #&;,*@# ##&>;>&#  ###&;'{';)#@ #&,{;&#   #$#-,{>-#   #$&;'=&$    #&&#     $*&&#       @&&#      ",
"        #&;'!;&&&&&&>;=&#      #&>=*$     #&>=&#     #&>',-#    #&>;&#      $&,=&#     #&>=&#   #&,&$      @###       #&-#      ",
"        #*>'=*+$####*&>;&##    #&>&+      $&={=&#    #&>=&$     #&,;*#      #&,;*#     @&,,-+   #&>=&$@               #&&#      ",
"        #&>=-$      ##&=,&&#  $&==)+       #*>,&#    #&;;)#     #&>,&#      #),;-$     #->=-@   $&>~>&&#@$#@          #&&#      ",
"        #&>,&$        #&>>)#  #&;;&#       #&>>&#    #&>=-#     #&>=&#      #&>=-#     #&,;&#   #&>==;;&&&&&##        #&*$      ",
"        #&,=&#        #&>'>&# #&;>*@       #&>=*$    #&;=-$     $-;=&#      #&>=-#     #&;;&@    #&&&>;>>>>=*&#       ###       ",
"        #&;=*#        #&>';&# #&>=&+       #&>;&#    #&>,&#     #&,=&@      #&;=&#     #->,&@     ###&&-)-;{>;&#                ",
"        #&;,&#        #&>',&# #&>=&#       #&,;-#    #&>=&@     #&;=&@      $&;,*@     #&>>&#        +##$$&;',&$                ",
"        #&>=&#        @&,~;&# #&;,-#      #&,'=)#    #&>,*#     @&>=&#      #&;=*#     $&,=*#   ###       $&;>-#      ####      ",
"        #&;>*#        $&>',)$  #-,=&#     #&;;*#     #&>=&@     $&;=*$      #&==&@     #&>=&#   #&&#       #&>*@     #&&&-#     ",
"        #&>];*#     ##-,;,&$    #&>>&#   #&;=*@      #&,]=&#    #&;]>-#     #&>=&@   @#&,],-@   #&>&$     #&>-#      #&,=&$     ",
"     ^##&;====&#####&&==&&@@    ##&&=*###&;*&$+   @@#&,;=;;&# ##&,,,,;&#    #&&;=-#$$&*->;;;&##  #&=&##@##&*-##      #&=,&#     ",
"     .)*-)*&*&)*&-)&&)&*@@        #@*&-*-*&$#     #*&-&-&&--# #&-*&)-&&@     #$*&-)&&@##***)*&#  $*)&*&&*&&##        @-&&-#     ",
"     ####$###@@$##$##@##            $#$@$$#       #######@#@# ##@####@##       @##+$#   #$#@@$+  ##@#@#$$#@           #+@$      ",
"                                                                                                                                ",
"                                                                                                                                ",
"                                                                                                                                ",
"                                                                                                                                ",
"                                                                                                                                ",
"                                                                                                                                ",
"                                                                                                                                ",
"                                                                                                                                ",
"                                                                                                                                ",
"                                                                                                                                ",
"                                                                                                                                ",
"                                                                                                                                ",
"                                                                                                                                ",
"                                                                                                                                ",
"                                                                                                                                ",
"                                                                                                                                ",
"                                                                                                                                ",
"                                                                                                                                ",
"                                                                                                                                ",
"                                                                                                                                ",
"                                                                                                                                ",
"                                                                                                                                "};
