/* XPM */
static char * game_over_xpm[] = {
"128 32 20 1",
" 	c None",
".	c #FF2020",
"+	c #FF201F",
"@	c #FF1F20",
"#	c #FF1F1F",
"$	c #FF3F3F",
"%	c #FF3F40",
"&	c #FF4040",
"*	c #FF403F",
"=	c #FF5F5F",
"-	c #FF6060",
";	c #FF5F60",
">	c #FF605F",
",	c #FF5F5E",
"'	c #FF5E5F",
")	c #FF5E5E",
"!	c #FF7F7E",
"~	c #FF7F7F",
"{	c #FF7E7F",
"]	c #FF7E7E",
"                                                                                                                                ",
"                                                                                                                                ",
"                                                                                                                                ",
"                                                                                                                                ",
"                                                                                                                                ",
"                                                                                                                                ",
"                                                                                                                                ",
"                                                                                                                                ",
"                                                                                                                                ",
"                                                                                                                                ",
"      .+..@..#@                                                                .@#...                                           ",
"     $$$$$%%&&%                                                              %*%%%$*$&$                                         ",
"    $=-*    $=$                                                             $==*    %==*                                        ",
"   %=;$      %=*                                                           $=>&      *==$                                       ",
"   $=&        %$     *%$$$$     $**%$ **$%  %*$*$$       %$&$$             $,=*      &==$  *&*$%$$ *%$$*    &%$$*     $$*$$ %%& ",
"  @%=$              $==&*=,%   %$====$&*==$%%%%===%     %=%$%=%$          $=;%        $'>* *=====$ *)==$   %=$&&=$*  $=====*=;& ",
"  .&=*             &==&  $==$    $==*   *==$   $=-&    *=*   &==$         $==%        *==$  $=!;%   $=%   $=%   &==%  $=~{=%*$* ",
"  +%;$     %$%&$%$ $=;$   $=%    $==$   $==*   *==$   *=!>$$$===*         $==*        *==$   &==$   $&   $=]=*$*,=>$   %=;$     ",
"  #&=%     $=',=&*  %&   $==%    &=>%   $=>&   %=>*   %={=&%%*%&&         $=>%        *==$   $=>$  $=%   $=~>$$$$&*%   &==$     ",
"  .&>&      &==%     $$%$$>;$    *==$   $==*   $=>$   $==&                $=>*       *=~=&    $==$ $*    %==$          *==$     ",
"  .&=*       *=*    $==&  &=&    $,=$   $==*   $=;&   $=;&                 %=$       $,;*     $==$ $*    *=>%          %==$     ",
"   $==$     $=;&   &==$   $=*    *==$   %=>&   $==*   %==&     *%          &==$      $==$      $,=$&     $==&     **   $==%     ",
"    *==*   $==;*   %==*  $'=%    $==$   &);%   $==*    $==%   $=%           $='$    %==$       $=~=%      %==*   %=%   $==&     ",
"    $$;>$$$=$$;%   $>==%**%==%*$%;=;>* &=>==& %>;==*$   &=;%&%&&             $*=%$$%>&*         $>%        $==$%%$*  $%-;==&$   ",
"      $%$**%  **    *$**%  &$* $&$$&&$ *%$%&& &&$%*%$    &&&*$                 **$$%%           &%$         $%&$%    **$%%&&%   ",
"                                                                                                                                ",
"                                                                                                                                ",
"                                                                                                                                ",
"                                                                                                                                ",
"                                                                                                                                ",
"                                                                                                                                ",
"                                                                                                                                "};
