/* XPM */
static char * green_mode_xpm[] = {
"64 32 29 1",
" 	c None",
".	c #000000",
"+	c #001100",
"@	c #002100",
"#	c #002200",
"$	c #003300",
"%	c #004400",
"&	c #004500",
"*	c #005500",
"=	c #006600",
"-	c #006700",
";	c #007700",
">	c #008800",
",	c #009900",
"'	c #00AA00",
")	c #00AB00",
"!	c #00BB00",
"~	c #00CC00",
"{	c #00CD00",
"]	c #00DD00",
"^	c #00DE00",
"/	c #00EE00",
"(	c #00EF00",
"_	c #00FF00",
":	c #007600",
"<	c #004300",
"[	c #006500",
"}	c #005400",
"|	c #003200",
"   ..........................................................   ",
"  ............................................................  ",
" .........................+++++++++++++++++++++++++++++++++++@. ",
"..........................##################################$#..",
"..........................$$$$$$$$$$$$$$$$$$$$$$$$$$$$$$$$$%$#..",
"..........................%%%%%%%%%%&%%%%%%%%%%%%%%%%%%%%%*%$#..",
"..........................*******************************=*%$#..",
"..........................=====================-========;=*%$#..",
"..........................;;;;;;;;;;;;;;;;;;;;;;;;;;;;;>;=*%$#..",
"..........................>>>>>>>>>>>>>>>>>>>>>>>>>>>>,>;=*%$#..",
"..........................,,,,,,,,,,,,,,,,,,,,,,,,,,,',>;=*%$#..",
"..........................''''')'''')''''''''''')')'!',>;=*%$#..",
"..........................!!!!!!!!!!!!!!!!!!!!!!!!!~!',>;=*%$#..",
"..........................~~~~~~~~{~~~~~~~~~~~~~~~]~!',>;=*%$#..",
"..........................]]]]^]]]]^]]]]]]]^]]]]]/]~!',>;=*%$#..",
"..........................////////(/////////////_/]~!',>;=*%$#..",
".........................._______________________/]~!',>;=*%$#..",
"..........................////////////////////////]~!',>;=*%$#..",
"..........................]]]]]]]]]]]]]]]]]]]]]]]]]~!',>:=*%$#..",
"..........................~~~~~~~~~~~~~~~~~~~~~~~~~~!',>;=*%$#..",
"..........................!!!!!!!!!!!!!!!!!!!!!!!!!!!',>;=*%$#..",
"..........................'''''''''''''''''''''''''''',>;=*%$#..",
"..........................,,,,,,,,,,,,,,,,,,,,,,,,,,,,,>;=*<$#..",
"..........................>>>>>>>>>>>>>>>>>>>>>>>>>>>>>>;[*%$#..",
"..........................;;;;;;;;;;;;;;;;;;;;;;;;;;;;;;:=*%$#..",
"..........................[========================[======*%$#..",
"..........................*********************}**********}%$#..",
"..........................%%%%%%%%%%%%%%%%%%%%%%%%%<%%%%%%%%$#..",
"..........................$$$$$$$$$$$$$$$$$$$$$$$$$$$$||$$$$$#..",
" .........................#@##################################. ",
"  ............................................................  ",
"   ..........................................................   "};
