/* XPM */
static char * green_xpm[] = {
"64 32 39 1",
" 	c None",
".	c #000000",
"+	c #001100",
"@	c #002200",
"#	c #003300",
"$	c #004400",
"%	c #002100",
"&	c #005500",
"*	c #005600",
"=	c #006600",
"-	c #005400",
";	c #006700",
">	c #007700",
",	c #007800",
"'	c #008800",
")	c #008900",
"!	c #009900",
"~	c #009A00",
"{	c #00AA00",
"]	c #00AB00",
"^	c #00BB00",
"/	c #00BC00",
"(	c #00CC00",
"_	c #003200",
":	c #00DD00",
"<	c #00DE00",
"[	c #00EE00",
"}	c #003400",
"|	c #00EF00",
"1	c #00FF00",
"2	c #00ED00",
"3	c #009800",
"4	c #006500",
"5	c #004500",
"6	c #004300",
"7	c #00BA00",
"8	c #00A900",
"9	c #008700",
"0	c #007600",
"   ..........................................................   ",
"  ............................................................  ",
" .+++++++++++++++++++++++++++++++++++++++++++++++++++++++++++@. ",
"..+@@@@@@@@@@@@@@@@@@@@@@@@@@@@@@@@@@@@@@@@@@@@@@@@@@@@@@@@@#@..",
"..+@#######################################################$#%..",
"..+@#$$$$$$$$$$$$$$$$$$$$$$$$$$$$$$$$$$$$$$$$$$$$$$$$$$$$$&$#@..",
"..+@#$*&&&&&&&&&&&&&&&&&&&&&&&&&&&&&&&&&&&&&&&&&&&&&&&&&&=-$#@..",
"..+@#$&=====================;=================;=========>=&$#@..",
"..+@#$&=>,>>>>>>>>>>>>>>>>>>>>>>>>>>>>>>>>>>>>>>>>,>>>>'>=&$#@..",
"..+@#$&=>''')''''''''')''''''''''''''))'''''''''''''''!'>=&$#@..",
"..+@#$&=>'!!!!!!!!!!!!!!!!!!!!!!!!!!!!!!!~!!!!!!~!!!!{!'>=&$#@..",
"..+@#$&=>'!]{{{{{{{{{{{{{{{{]{{{{{{{{{{{{{{{{]{{{{]{^{!'>=&$#@..",
"..+@#$&=>'!]^^^^^^^^^^^^^^^^^^^^^^^^^^^^^^^/^^^^^^^(^{!'>=&$_@..",
"..+@#$&=>'!{^(((((((((((((((((((((((((((((((((((((:(^{!'>=&$#@..",
"..+@#$&=>'!{^(::::::::::::::::::::::<::::::::::::[:(^{!'>=&$#@..",
"..+@}$&;>'!{^(:[[[[[|[|[[[[[[[[[[[[[[[[[[[[[[[[|1[:(^{!'>=&$#@..",
"..+@#$&=>'~{^(:1111111111111111111111111111111111[:(^{!'>=&$#@..",
"..+@#$&=>'!{^([[[[[[[[[[[[[[[[[[[[[[[[[[[[[[[[2[[[:(^{3'>4&$_@..",
"..+@#5&=>'!{^::::::::::::::::::::::::::::::::::::::(^{!'>=&6_@..",
"..+@#$&=>'!{((((((((((((((((((((((((((((((((((((((((^{!'>=&$#@..",
"..+@#$&=>'!^^^^^^^^^^^^^^^7^^^^^^^^^^^^^^^^^^^^^^^^^^{!'>=&$#@..",
"..+@#$&=>'{{{{{{{{{{{{{8{{{{{{{{{{{{{{{{{{{{{{{{{{{{{{!'>=&$#%..",
"..+@#$&=>!!3!!!!!3!!!!!!!!!!!!!!!!!!3!!!!!!!!!!!!!!!!!!9>=&$#%..",
"..+@#$&=''''''''''''''''''''''''''''''''''''''''9'''''''>=&$#@..",
"..+@#$&>>>>>>>>>>>>>>>>>>>>>>0>>>>>>>>>>>>>>>0>>>>>>>>>>>=&$#@..",
"..+@#$=================4=============4====================&$#%..",
"..+@#&&&&&&&&&&&&&&&&&&&&&&&-&--&&&&&--&&&&&&&&&&&&&&&&&&&&6#@..",
"..+@$$$$$$$$$$$$$$$$$$$$$$$6$$$$$$$$$$$$$$$$$$$$$$$$$$$$$$$$#@..",
"..+#############################################_#######_####@..",
" .@@@@@@@@@@@@%@@@@@@@%@@@@@@@@@@@@@@@@@@@@@@@@@@@@@@@@@@@@@@@. ",
"  ............................................................  ",
"   ..........................................................   "};
