/* XPM */
static char * key_icon_xpm[] = {
"34 16 4 1",
" 	c None",
".	c #000000",
"+	c #FFFF00",
"@	c #FFFF0C",
"                                  ",
"                                  ",
"    .....                         ",
"   .+++++.                        ",
"  .+++++++.                       ",
" .+++++++++...................... ",
".+++++++++++++++++++++++++++++++. ",
".@+++++++++@++++++++++++++++++++. ",
".@+++++++++@++++++++++++++++++++. ",
".+++++++++++++++++++++++++++++++. ",
" .+++++++++..............++++.... ",
"  .+++++++.             .++++.    ",
"   .+++++.              .++++.    ",
"    .....               .+..+.    ",
"                        ......    ",
"                                  "};
