/* XPM */
static char * key_xpm[] = {
"64 32 3 1",
" 	c None",
".	c #000000",
"+	c #FFFF00",
"   ..........................................................   ",
"  ............................................................  ",
" .............................................................. ",
"................................................................",
"......                                                    ......",
".....                                                      .....",
"....                                                        ....",
"....                                                        ....",
"....                                                        ....",
"....               .....                                    ....",
"....              .+++++.                                   ....",
"....             .+++++++.                                  ....",
"....            .+++++++++......................            ....",
"....           .+++++++++++++++++++++++++++++++.            ....",
"....           .+++++++++++++++++++++++++++++++.            ....",
"....           .+++++++++++++++++++++++++++++++.            ....",
"....           .+++++++++++++++++++++++++++++++.            ....",
"....            .+++++++++..............++++....            ....",
"....             .+++++++.             .++++.               ....",
"....              .+++++.              .++++.               ....",
"....               .....               .+..+.               ....",
"....                                   ......               ....",
"....                                                        ....",
"....                                                        ....",
"....                                                        ....",
"....                                                        ....",
".....                                                      .....",
"......                                                    ......",
"................................................................",
" .............................................................. ",
"  ............................................................  ",
"   ..........................................................   "};
