/* XPM */
static char * killer_xpm[] = {
"64 32 2 1",
" 	c None",
".	c #000000",
"   ..........................................................   ",
"  ............................................................  ",
" .............................................................. ",
"................................................................",
"...........................................     ................",
"..........................................       ...............",
".........................................         ..............",
".........................................         ..............",
".........................................         ..............",
".........................................         ..............",
".........................................         ..............",
".........................................         ..............",
".......                                                 ........",
"......                                                   .......",
".....                                                     ......",
".....                                                     ......",
".....                                                     ......",
".....                                                     ......",
"......                                                   .......",
".......                                                 ........",
".........................................         ..............",
".........................................         ..............",
".........................................         ..............",
".........................................         ..............",
".........................................         ..............",
".........................................         ..............",
"..........................................       ...............",
"...........................................     ................",
"................................................................",
" .............................................................. ",
"  ............................................................  ",
"   ..........................................................   "};
