/* XPM */
static char * red_mode_xpm[] = {
"64 32 29 1",
" 	c None",
".	c #000000",
"+	c #110000",
"@	c #220000",
"#	c #330000",
"$	c #340000",
"%	c #440000",
"&	c #320000",
"*	c #550000",
"=	c #210000",
"-	c #660000",
";	c #770000",
">	c #880000",
",	c #990000",
"'	c #9A0000",
")	c #AA0000",
"!	c #AB0000",
"~	c #BB0000",
"{	c #BC0000",
"]	c #CC0000",
"^	c #430000",
"/	c #CD0000",
"(	c #DD0000",
"_	c #EE0000",
":	c #FF0000",
"<	c #540000",
"[	c #980000",
"}	c #870000",
"|	c #760000",
"   ..........................................................   ",
"  ............................................................  ",
" .........................+++++++++++++++++++++++++++++++++++@. ",
"..........................@@@@@@@@@@@@@@@@@@@@@@@@@@@@@@@@@@#@..",
"..........................#$#####################$$########%&@..",
"..........................%%%%%%%%%%%%%%%%%%%%%%%%%%%%%%%%*%#=..",
"..........................*******************************-*%#@..",
"..........................------------------------------;-*%#@..",
"..........................;;;;;;;;;;;;;;;;;;;;;;;;;;;;;>;-*%#@..",
"..........................>>>>>>>>>>>>>>>>>>>>>>>>>>>>,>;-*%#@..",
"..........................,',,,,,,,,,,,',,,,',,,,,,,,),>;-*%#@..",
"..........................)))))))))))))))))))))))!))~),>;-*%#=..",
"..........................~~~~~~{~~~~~~~{~~~~~~~~~~]~),>;-*^#@..",
"..........................]]]]/]]/]]]]]]]]]]/]]]]](]~),>;-*%#@..",
"..........................(((((((((((((((((((((((_(]~),>;-*%#=..",
"..........................______________________:_(]~),>;-*%#@..",
"..........................:::::::::::::::::::::::_(]~),>;-*%#@..",
"..........................________________________(]~),>;-*%#@..",
"..........................(((((((((((((((((((((((((]~),>;-*%#@..",
"..........................]]]]]]]]]]]]]]]]]]]]]]]]]]~),>;-*^#=..",
"..........................~~~~~~~~~~~~~~~~~~~~~~~~~~~),>;-*%#@..",
"..........................)))))))))))))))))))))))))))),>;-<%#@..",
"..........................,[,,,,,,,,[,,,,,,,,,,,,,,,,,,>;-*%#@..",
"..........................>>>>>>>>>>>>>>>>>>>>>>>}>>>>>>;-*%#@..",
"..........................;;;;;;;;;;|;;;;;;;|;;;;;;;;;;;;-*%#@..",
"..........................--------------------------------*%#@..",
"..........................***************<*****************%#@..",
"..........................%%%%%%%%%%%%%%%%%%%%%%%%%%%%%%%%%%#@..",
"..........................################&########&#########@..",
" .........................@=@@@=@@@@@@@@@@@@@@@@@@@@@@@@@@@@@@. ",
"  ............................................................  ",
"   ..........................................................   "};
