/* XPM */
static char * red_xpm[] = {
"64 32 35 1",
" 	c None",
".	c #000000",
"+	c #110000",
"@	c #220000",
"#	c #330000",
"$	c #340000",
"%	c #440000",
"&	c #320000",
"*	c #450000",
"=	c #550000",
"-	c #210000",
";	c #660000",
">	c #770000",
",	c #780000",
"'	c #880000",
")	c #890000",
"!	c #990000",
"~	c #9A0000",
"{	c #AA0000",
"]	c #AB0000",
"^	c #BB0000",
"/	c #BC0000",
"(	c #CC0000",
"_	c #430000",
":	c #CD0000",
"<	c #DD0000",
"[	c #DE0000",
"}	c #EE0000",
"|	c #EF0000",
"1	c #FF0000",
"2	c #DC0000",
"3	c #540000",
"4	c #980000",
"5	c #870000",
"6	c #760000",
"   ..........................................................   ",
"  ............................................................  ",
" .+++++++++++++++++++++++++++++++++++++++++++++++++++++++++++@. ",
"..+@@@@@@@@@@@@@@@@@@@@@@@@@@@@@@@@@@@@@@@@@@@@@@@@@@@@@@@@@#@..",
"..+@#######################$#####################$$########%&@..",
"..+@#%%%*%%%%%%%%%%%%%%%%%%%%%%%%%%%%%%%%%%%%%%%%%%%%%%%%%=%#-..",
"..+@#%===================================================;=%#@..",
"..+@#%=;;;;;;;;;;;;;;;;;;;;;;;;;;;;;;;;;;;;;;;;;;;;;;;;;>;=%#@..",
"..+@#%=;>>>>>>,>>>>>>>>>>>>>>>>>>>>>>>>>>>>>>>>>>>>>>>>'>;=%#@..",
"..+@$%=;>'''''')''''''''''''''''''''''''''''''''''''''!'>;=%#@..",
"..+@#%=;>'!!!!!!!~!!!!!!!!!~!!!!!!!!!!!~!!!!~!!!!!!!!{!'>;=%#@..",
"..+@#%=;>'!{{{{{{{{{{{]{{{{{{{{{{{{{{{{{{{{{{{{{{]{{^{!'>;=%#-..",
"..+@#%=;>'!{^^^^^^^^^^/^^^^^^^^^/^^^^^^^/^^^^^^^^^^(^{!'>;=_#@..",
"..+@#%=;>'!{^(((((((((((((((((:((:((((((((((:(((((<(^{!'>;=%#@..",
"..+@#%=;>'!{^(<<<<<[<[<[<<<<<<<<<<<<<<<<<<<<<<<<<}<(^{!'>;=%#-..",
"..+@#%=;>'!{^(<}}}}}}}}|}}}}}}}}}}}}}}}}}}}}}}}}1}<(^{!'>;=%#@..",
"..+@#%=;>'!{/(<1111111111111111111111111111111111}<(^{!'>;=%#@..",
"..+@#%=;>'!{^:}}}}}}}}}}}}}}}}}}}}}}}}}}}}}}}}}}}}<(^{!'>;=%#@..",
"..+@#%=;>)!{^<<<<<<<<<<2<<<<<<<<<<<<<<<<<<<<<<<<<<<(^{!'>;=%#@..",
"..+@#%=;>'!{((((((((((((((((((((((((((((((((((((((((^{!'>;=_#-..",
"..+@#%=;,'!^^^^^^^^^^^^^^^^^^^^^^^^^^^^^^^^^^^^^^^^^^{!'>;=%#@..",
"..+@#%=;>'{{{{{{{{{{{{{{{{{{{{{{{{{{{{{{{{{{{{{{{{{{{{!'>;3%#@..",
"..+@#%=;>!!!!!!!!!!!!!!!!!!4!!!!!!!!4!!!!!!!!!!!!!!!!!!'>;=%#@..",
"..+@#%=;''''''''''''''''5''''''''''''''''''''''''5''''''>;=%#@..",
"..+@#%=>>6>>>>>6>>>>>>>6>>>>>>>>>>>>6>>>>>>>6>>>>>>>>>>>>;=%#@..",
"..+@#%;;;;;;;;;;;;;;;;;;;;;;;;;;;;;;;;;;;;;;;;;;;;;;;;;;;;=%#@..",
"..+@#====================================3=================%#@..",
"..+@%%%%%%%%_%%%%%_%_%%%%%%%%%%%%%%%%%%%%%%%%%%%%%%%%%%%%%%%#@..",
"..+######&###########&####################&########&#########@..",
" .@@@@@@@@@@@@@@@@@@@@@@@@@-@@@-@@@@@@@@@@@@@@@@@@@@@@@@@@@@@@. ",
"  ............................................................  ",
"   ..........................................................   "};
