/* XPM */
static char * yellow_mode_xpm[] = {
"64 32 53 1",
" 	c None",
".	c #000000",
"+	c #111100",
"@	c #222200",
"#	c #222300",
"$	c #333300",
"%	c #444400",
"&	c #555500",
"*	c #565500",
"=	c #666600",
"-	c #444300",
";	c #212200",
">	c #666700",
",	c #676600",
"'	c #777700",
")	c #777800",
"!	c #787700",
"~	c #888700",
"{	c #888800",
"]	c #898800",
"^	c #999900",
"/	c #9A9900",
"(	c #999A00",
"_	c #AAAA00",
":	c #ABAA00",
"<	c #AAAB00",
"[	c #BBBB00",
"}	c #BCBB00",
"|	c #BBBC00",
"1	c #CCCC00",
"2	c #323300",
"3	c #CDCC00",
"4	c #CCCD00",
"5	c #DDDD00",
"6	c #DDDE00",
"7	c #EEEE00",
"8	c #EFEE00",
"9	c #FFFF00",
"0	c #EEED00",
"a	c #767700",
"b	c #545500",
"c	c #AAA900",
"d	c #A9AA00",
"e	c #999800",
"f	c #989900",
"g	c #878800",
"h	c #666500",
"i	c #656600",
"j	c #555400",
"k	c #434400",
"l	c #333200",
"m	c #323200",
"n	c #222100",
"   ..........................................................   ",
"  ............................................................  ",
" .........................+++++++++++++++++++++++++++++++++++@. ",
"..........................@@@@@@@@@@@@#@@@@@@@@@@@@@@@@@@@@@$@..",
"..........................$$$$$$$$$$$$$$$$$$$$$$$$$$$$$$$$$%$@..",
"..........................%%%%%%%%%%%%%%%%%%%%%%%%%%%%%%%%&%$@..",
"..........................&&&&&&&*&*&&&&&&&&&&&&&&&&&&&&&=&-$;..",
"..........................=======>=====>=========,====,='=&%$;..",
"..........................''''')''''')!'''''''''!''''''~'=&%$@..",
"..........................{{{{{{{{{{{]{{{{{{]{{{{{{{{{^{'=&%$@..",
"..........................^/^^^(^//^^^^^^^^^^^^^^^^^^_^{'=&%$@..",
".........................._____:______________<_____[_^{'=&%$@..",
"..........................[[}[[[[[|[[[[[[[[[[[[[[[[1[_^{'=&%2@..",
"..........................11131411114111111111111151[_^{'=&%$@..",
"..........................55655555555555555555555751[_^{'=&%$@..",
"..........................77878777777777777777779751[_^{'=&%$;..",
"..........................99999999999999999999999751[_^{'=&%$@..",
"..........................77707777777777777777777751[_^{a=&%$@..",
"..........................55555555555555555555555551[_^{'=&%$@..",
"..........................11111111111111111111111111[_^{'=b-$@..",
"..........................[[[[[[[[[[[[[[[[[[[[[[[[[[[_^{'=&%$@..",
"..........................c_________________________d_^{'=&%$@..",
"..........................^^^e^^^^^^^^e^^^e^^f^^^^^f^^^{'=&%$@..",
"..........................{{{{{{{{{{{{{{{{{{{{g{{{g{{{{{'=&%$@..",
"..........................'''a''''''''''''''''''''''''a'a=&%$@..",
"..........................========h=====i========i========&%$@..",
"..........................&&&&b&&&&&&&&&&&&j&&&&&&&&&&&&&&&%$@..",
"..........................%%%%%%%%%%%%%%%k%k%%%%%%%%%%%%%%%%$@..",
"..........................$$$$$$$2$$l$$$$$$$$$$$$$$$$$$$$lm$$@..",
" .........................@n@@@@@@@@@@@@@@@@@@@@@@@@@@@;@@@@@@. ",
"  ............................................................  ",
"   ..........................................................   "};
