/* XPM */
static char * yellow_xpm[] = {
"64 32 57 1",
" 	c None",
".	c #000000",
"+	c #111100",
"@	c #121100",
"#	c #222200",
"$	c #222300",
"%	c #333300",
"&	c #444400",
"*	c #444500",
"=	c #555500",
"-	c #565500",
";	c #666600",
">	c #444300",
",	c #212200",
"'	c #676600",
")	c #666700",
"!	c #777700",
"~	c #777800",
"{	c #787700",
"]	c #888700",
"^	c #888800",
"/	c #898800",
"(	c #999900",
"_	c #9A9900",
":	c #999A00",
"<	c #AAAA00",
"[	c #ABAA00",
"}	c #AAAB00",
"|	c #BBBB00",
"1	c #BCBC00",
"2	c #BCBB00",
"3	c #BBBC00",
"4	c #CCCC00",
"5	c #323300",
"6	c #CCCD00",
"7	c #CDCC00",
"8	c #DDDD00",
"9	c #DDDE00",
"0	c #EEEE00",
"a	c #EFEE00",
"b	c #FFFF00",
"c	c #EEED00",
"d	c #767700",
"e	c #CBCC00",
"f	c #545500",
"g	c #AAA900",
"h	c #A9AA00",
"i	c #989900",
"j	c #999800",
"k	c #878800",
"l	c #666500",
"m	c #656600",
"n	c #555400",
"o	c #434400",
"p	c #333200",
"q	c #323200",
"r	c #222100",
"   ..........................................................   ",
"  ............................................................  ",
" .+@+++++++++++++++++++++++++++++++++++++++++++++++++++++++++#. ",
"..+###################################$#####################%#..",
"..+#%%%%%%%%%%%%%%%%%%%%%%%%%%%%%%%%%%%%%%%%%%%%%%%%%%%%%%%&%#..",
"..+#%&&&&&&&*&&&&&&&&&&&&&&&&&&&&&&&&&&&&&&&&&&&&&&&&&&&&&=&%#..",
"..+#%&===========================-=-=====================;=>%,..",
"..+#%&=;';;;;;;;;;;;;;;;;;;;;;;;;);;;;;);;;;;;;;;';;;;';!;=&%,..",
"..+#%&=;!!!!~!!!!!!!!!~!~!!!!!!~!!!!!~{!!!!!!!!!{!!!!!!]!;=&%#..",
"..+$%&='!^^^^^^^/^^^^^^^^^^^^^^^^^^^^/^^^^^^/^^^^^^^^^(^!;=&%#..",
"..+#%&=;!^(((((((((((((((_(_(((:(__((((((((((((((((((<(^!;=&%#..",
"..+#%&=;!^(<<[<<<<<<<<<<<<<<<<<[<<<<<<<<<<<<<<}<<<<<|<(^!;=&%#..",
"..+#%&=;!^(<|||||||1||||||||2|||||3||||||||||||||||4|<(^!;=&5#..",
"..+#%&=;!^(<|444444444464444474644446444444444444484|<(^!;=&%#..",
"..+#%&=;!^(<2488888888888888988888888888888888888084|<(^!;=&%#..",
"..+#%&=;~^(<|480000000000000a0a00000000000000000b084|<(^!;=&%,..",
"..+#%&=;!^(<|48bbbbbbbbbbbbbbbbbbbbbbbbbbbbbbbbbb084|<(^!;=&%#..",
"..+#%&-;!^(<|4000000000000000c0000000000000000000084|<(^d;=&%#..",
"..+#%&=;!^([|888888888888888888888888888888888888884|<(^!;=&%#..",
"..+#%&=;!^(}444444444444e444444444444444444444444444|<(^!;f>%#..",
"..+#%&=;!^(||||||||||||||||||||||||||||||||||||||||||<(^!;=&%#..",
"..+#%&=;!^<<<<<<<<<<<<<gghg<<<<<<<<<<<<<<<<<<<<<<<<<h<(^!;=&%#..",
"..+#%&=;!((((((i(((((i(((((((j((((((((j(((j((i(((((i(((^!;=&%#..",
"..+#%&=;^^^^^^^^^^^^]^^^^^^^^^^^^^^^^^^^^^^^^^k^^^k^^^^^!;=&%#..",
"..+#%&=!!!!!!!!!!!d!!!!!!!!!!d!!!!!!!!!!!!!!!!!!!!!!!!d!d;=&%#..",
"..+#%*;;l;;;;;;;;;;;;;lm;;;;;;;;;;l;;;;;m;;;;;;;;m;;;;;;;;=&%#..",
"..+#%=============n===========f============n===============&%#..",
"..+#&&&&&&&&&&&&&o&&&&&&&&&&&&&&&&&&&&&&&o&o&&&&&&&&&&&&&&&&%#..",
"..+%%%%%%%%%p%%5%%%%%%%%%5%%%%%%%5%%p%%%%%%%%%%%%%%%%%%%%pq%%#..",
" .#####r###r##r###,########r###########################,######. ",
"  ............................................................  ",
"   ..........................................................   "};
